<mxfile host="app.diagrams.net" agent="Mozilla/5.0 (Windows NT 10.0; Win64; x64) AppleWebKit/537.36 (KHTML, like Gecko) Chrome/128.0.0.0 YaBrowser/24.10.0.0 Safari/537.36" version="24.8.4">
  <diagram name="Страница — 1" id="Jp4bcXEOnr2e9huAqTIt">
    <mxGraphModel dx="357" dy="401" grid="1" gridSize="10" guides="1" tooltips="1" connect="1" arrows="1" fold="1" page="1" pageScale="1" pageWidth="827" pageHeight="1169" math="0" shadow="0">
      <root>
        <mxCell id="0" />
        <mxCell id="1" parent="0" />
        <mxCell id="0Ge3KuiNKLOLXrar2g4F-3" style="edgeStyle=orthogonalEdgeStyle;rounded=0;orthogonalLoop=1;jettySize=auto;html=1;" edge="1" parent="1" source="0Ge3KuiNKLOLXrar2g4F-1" target="0Ge3KuiNKLOLXrar2g4F-2">
          <mxGeometry relative="1" as="geometry" />
        </mxCell>
        <mxCell id="0Ge3KuiNKLOLXrar2g4F-1" value="Начало" style="ellipse;whiteSpace=wrap;html=1;" vertex="1" parent="1">
          <mxGeometry x="370" y="40" width="110" height="40" as="geometry" />
        </mxCell>
        <mxCell id="0Ge3KuiNKLOLXrar2g4F-5" style="edgeStyle=orthogonalEdgeStyle;rounded=0;orthogonalLoop=1;jettySize=auto;html=1;entryX=0.5;entryY=0;entryDx=0;entryDy=0;" edge="1" parent="1" source="0Ge3KuiNKLOLXrar2g4F-6" target="0Ge3KuiNKLOLXrar2g4F-4">
          <mxGeometry relative="1" as="geometry" />
        </mxCell>
        <mxCell id="0Ge3KuiNKLOLXrar2g4F-2" value="Ввод А. В" style="shape=parallelogram;perimeter=parallelogramPerimeter;whiteSpace=wrap;html=1;fixedSize=1;" vertex="1" parent="1">
          <mxGeometry x="365" y="120" width="120" height="60" as="geometry" />
        </mxCell>
        <mxCell id="0Ge3KuiNKLOLXrar2g4F-11" style="edgeStyle=orthogonalEdgeStyle;rounded=0;orthogonalLoop=1;jettySize=auto;html=1;entryX=0.5;entryY=0;entryDx=0;entryDy=0;" edge="1" parent="1" source="0Ge3KuiNKLOLXrar2g4F-4" target="0Ge3KuiNKLOLXrar2g4F-10">
          <mxGeometry relative="1" as="geometry" />
        </mxCell>
        <mxCell id="0Ge3KuiNKLOLXrar2g4F-15" style="edgeStyle=orthogonalEdgeStyle;rounded=0;orthogonalLoop=1;jettySize=auto;html=1;entryX=0.5;entryY=0;entryDx=0;entryDy=0;" edge="1" parent="1" source="0Ge3KuiNKLOLXrar2g4F-4" target="0Ge3KuiNKLOLXrar2g4F-16">
          <mxGeometry relative="1" as="geometry">
            <mxPoint x="580" y="310" as="targetPoint" />
          </mxGeometry>
        </mxCell>
        <mxCell id="0Ge3KuiNKLOLXrar2g4F-4" value="i = A, B" style="shape=hexagon;perimeter=hexagonPerimeter2;whiteSpace=wrap;html=1;fixedSize=1;" vertex="1" parent="1">
          <mxGeometry x="365" y="270" width="120" height="80" as="geometry" />
        </mxCell>
        <mxCell id="0Ge3KuiNKLOLXrar2g4F-7" value="" style="edgeStyle=orthogonalEdgeStyle;rounded=0;orthogonalLoop=1;jettySize=auto;html=1;entryX=0.5;entryY=0;entryDx=0;entryDy=0;" edge="1" parent="1" source="0Ge3KuiNKLOLXrar2g4F-2" target="0Ge3KuiNKLOLXrar2g4F-6">
          <mxGeometry relative="1" as="geometry">
            <mxPoint x="425" y="180" as="sourcePoint" />
            <mxPoint x="425" y="270" as="targetPoint" />
          </mxGeometry>
        </mxCell>
        <mxCell id="0Ge3KuiNKLOLXrar2g4F-6" value="S = 0" style="rounded=0;whiteSpace=wrap;html=1;" vertex="1" parent="1">
          <mxGeometry x="365" y="200" width="120" height="40" as="geometry" />
        </mxCell>
        <mxCell id="0Ge3KuiNKLOLXrar2g4F-8" style="edgeStyle=orthogonalEdgeStyle;rounded=0;orthogonalLoop=1;jettySize=auto;html=1;exitX=0.5;exitY=1;exitDx=0;exitDy=0;" edge="1" parent="1" source="0Ge3KuiNKLOLXrar2g4F-4" target="0Ge3KuiNKLOLXrar2g4F-4">
          <mxGeometry relative="1" as="geometry" />
        </mxCell>
        <mxCell id="0Ge3KuiNKLOLXrar2g4F-14" style="edgeStyle=orthogonalEdgeStyle;rounded=0;orthogonalLoop=1;jettySize=auto;html=1;entryX=0;entryY=0.5;entryDx=0;entryDy=0;" edge="1" parent="1" source="0Ge3KuiNKLOLXrar2g4F-10" target="0Ge3KuiNKLOLXrar2g4F-4">
          <mxGeometry relative="1" as="geometry">
            <mxPoint x="330" y="310" as="targetPoint" />
            <Array as="points">
              <mxPoint x="425" y="470" />
              <mxPoint x="330" y="470" />
              <mxPoint x="330" y="310" />
            </Array>
          </mxGeometry>
        </mxCell>
        <mxCell id="0Ge3KuiNKLOLXrar2g4F-10" value="S = S + (i ^ 2)" style="rounded=0;whiteSpace=wrap;html=1;" vertex="1" parent="1">
          <mxGeometry x="365" y="390" width="120" height="60" as="geometry" />
        </mxCell>
        <mxCell id="0Ge3KuiNKLOLXrar2g4F-19" style="edgeStyle=orthogonalEdgeStyle;rounded=0;orthogonalLoop=1;jettySize=auto;html=1;entryX=0.5;entryY=0;entryDx=0;entryDy=0;" edge="1" parent="1" source="0Ge3KuiNKLOLXrar2g4F-16" target="0Ge3KuiNKLOLXrar2g4F-18">
          <mxGeometry relative="1" as="geometry" />
        </mxCell>
        <mxCell id="0Ge3KuiNKLOLXrar2g4F-16" value="Вывод S" style="shape=parallelogram;perimeter=parallelogramPerimeter;whiteSpace=wrap;html=1;fixedSize=1;" vertex="1" parent="1">
          <mxGeometry x="520" y="330" width="120" height="30" as="geometry" />
        </mxCell>
        <mxCell id="0Ge3KuiNKLOLXrar2g4F-18" value="Конец" style="ellipse;whiteSpace=wrap;html=1;" vertex="1" parent="1">
          <mxGeometry x="525" y="380" width="110" height="40" as="geometry" />
        </mxCell>
      </root>
    </mxGraphModel>
  </diagram>
</mxfile>
